<svg xmlns="http://www.w3.org/2000/svg" version="1.1" xmlns:xlink="http://www.w3.org/1999/xlink" xmlns:svgjs="http://svgjs.dev/svgjs" width="1000" height="1016" viewBox="0 0 1000 1016"><g transform="matrix(1,0,0,1,-0.8526639019997333,0.4113360323886468)"><svg viewBox="0 0 243 247" data-background-color="#ffffff" preserveAspectRatio="xMidYMid meet" height="1016" width="1000" xmlns="http://www.w3.org/2000/svg" xmlns:xlink="http://www.w3.org/1999/xlink"><g id="tight-bounds" transform="matrix(1,0,0,1,0.2071973281859414,-0.09999999999999432)"><svg viewBox="0 0 242.58560000000003 247.2" height="247.2" width="242.58560000000003"><g><svg viewBox="0 0 242.58560000000003 247.2" height="247.2" width="242.58560000000003"><g><svg viewBox="0 0 242.58560000000003 247.2" height="247.2" width="242.58560000000003"><g id="textblocktransform"><svg viewBox="0 0 242.58560000000003 247.2" height="247.2" width="242.58560000000003" id="textblock"><g><svg viewBox="0 0 242.58560000000003 247.2" height="247.2" width="242.58560000000003"><g transform="matrix(1,0,0,1,0,0)"><svg width="242.58560000000003" viewBox="1.0499999523162842 -37.5 36.79999923706055 37.5" height="247.2" data-palette-color="#000000"><path d="M10.25 0L6.25 0 11.6-34.25Q8.8-33.15 7.28-30.93 5.75-28.7 5.75-25.5L5.75-25.5Q5.75-24 5.98-23 6.2-22 6.5-21.35 6.8-20.7 7.1-20.33 7.4-19.95 7.55-19.65L7.55-19.65Q4.65-19.65 2.85-21 1.05-22.35 1.05-25.55L1.05-25.55Q1.05-27.75 2.15-29.9 3.25-32.05 5.08-33.73 6.9-35.4 9.28-36.45 11.65-37.5 14.2-37.5L14.2-37.5Q16.25-37.5 18.25-36.8L18.25-36.8 22.7-10.45 28.1-36.8 35.3-36.8 37.85 0 30.65 0 29.1-22.45 24.45 0 17.6 0 13.8-22.45 10.25 0Z" opacity="1" transform="matrix(1,0,0,1,0,0)" fill="#000000" class="wordmark-text-0" data-fill-palette-color="primary" id="text-0"></path></svg></g></svg></g></svg></g></svg></g><g></g></svg></g><defs></defs></svg><rect width="242.58560000000003" height="247.2" fill="none" stroke="none" visibility="hidden"></rect></g></svg></g></svg>